# xmcd CD database file
#
# Track frame offsets:
#	150
#	15493
#	30296
#	44392
#	62283
#	76737
#	95345
#	107860
#	124268
#	137014
#	151982
#	166570
#
# Disc length: 2485 seconds
#
# Revision: 2
# Processed by: cddbd v1.5.2PL0 Copyright (c) Steve Scherf et al.
# Submitted via: CDex 1.79
#
DISCID=7f09b30c
DTITLE=Kamelot - Modra Planeta
DYEAR=2006
DGENRE=Country
TTITLE0=Modra Planeta
TTITLE1=Ocarovana
TTITLE2=Dve pirka v pisku
TTITLE3=Predtucha
TTITLE4=American
TTITLE5=Nemame to lehky
TTITLE6=Zlata Ruth
TTITLE7=Den Svateho Patrika
TTITLE8=Stuj, neriskuj!
TTITLE9=V kukuricnem poli
TTITLE10=Vanocni cas
TTITLE11=Az spadne opona
EXTD=YEAR: 2006
EXTT0=
EXTT1=
EXTT2=
EXTT3=
EXTT4=
EXTT5=
EXTT6=
EXTT7=
EXTT8=
EXTT9=
EXTT10=
EXTT11=
PLAYORDER=
